<svg xmlns="http://www.w3.org/2000/svg" width="34" height="34" viewBox="0 0 34 34" fill="none">
  <svg x="5.67" y="2.83" width="22.67" height="28.33" viewBox="0 0 25 30" fill="none">
    <path d="M13.0182 28.8818C15.6532 26.6067 23.5002 19.24 23.5002 12.1666C23.5002 9.1608 22.3061 6.27812 20.1807 4.15271C18.0553 2.0273 15.1726 0.833252 12.1668 0.833252C9.16104 0.833252 6.27836 2.0273 4.15295 4.15271C2.02754 6.27812 0.833496 9.1608 0.833496 12.1666C0.833496 19.24 8.68041 26.6067 11.3154 28.8818C11.5609 29.0664 11.8597 29.1662 12.1668 29.1662C12.474 29.1662 12.7728 29.0664 13.0182 28.8818Z" stroke="#FF8D28" stroke-width="1.66667" stroke-linecap="round" stroke-linejoin="round"/>
  </svg>
  <svg x="12.75" y="9.92" width="8.5" height="8.5" viewBox="0 0 11 11" fill="none">
    <path d="M5.0835 9.33325C7.43071 9.33325 9.3335 7.43046 9.3335 5.08325C9.3335 2.73604 7.43071 0.833252 5.0835 0.833252C2.73629 0.833252 0.833496 2.73604 0.833496 5.08325C0.833496 7.43046 2.73629 9.33325 5.0835 9.33325Z" stroke="#FF8D28" stroke-width="1.66667" stroke-linecap="round" stroke-linejoin="round"/>
  </svg>
</svg>
