<svg width="32" height="32" viewBox="0 0 32 32" fill="none" xmlns="http://www.w3.org/2000/svg">
<path d="M19.9999 24H13.3333" stroke="#FF8D28" stroke-width="1.66667" stroke-linecap="round" stroke-linejoin="round"/>
<path d="M5.33341 29.3334H26.6667C27.374 29.3334 28.0523 29.0525 28.5524 28.5524C29.0525 28.0523 29.3334 27.374 29.3334 26.6667V5.33341C29.3334 4.62617 29.0525 3.94789 28.5524 3.4478C28.0523 2.9477 27.374 2.66675 26.6667 2.66675H10.6667C9.9595 2.66675 9.28123 2.9477 8.78113 3.4478C8.28103 3.94789 8.00008 4.62617 8.00008 5.33341V26.6667C8.00008 27.374 7.71913 28.0523 7.21903 28.5524C6.71894 29.0525 6.04066 29.3334 5.33341 29.3334ZM5.33341 29.3334C4.62617 29.3334 3.94789 29.0525 3.4478 28.5524C2.9477 28.0523 2.66675 27.374 2.66675 26.6667V14.6667C2.66675 13.9595 2.9477 13.2812 3.4478 12.7811C3.94789 12.281 4.62617 12.0001 5.33341 12.0001H8.00008" stroke="#FF8D28" stroke-width="1.66667" stroke-linecap="round" stroke-linejoin="round"/>
<path d="M13.6665 9L16 7.5L19.5 9.5L22.6665 9" stroke="#FF8D28" stroke-width="1.66667" stroke-linecap="round" stroke-linejoin="round"/>
<path d="M13.6665 14H22.6665" stroke="#FF8D28" stroke-width="1.66667" stroke-linecap="round" stroke-linejoin="round"/>
<path d="M13.6665 19H22.6665" stroke="#FF8D28" stroke-width="1.66667" stroke-linecap="round" stroke-linejoin="round"/>
</svg>
